<?xml version="1.0" encoding="UTF-8" standalone="no"?>
<svg id="svg3007" xmlns:rdf="http://www.w3.org/1999/02/22-rdf-syntax-ns#" xmlns="http://www.w3.org/2000/svg" viewBox="0 0 24 24" version="1.1" xmlns:cc="http://creativecommons.org/ns#" xmlns:dc="http://purl.org/dc/elements/1.1/">
 <g id="layer1" transform="matrix(1.2857 0 0 1.2857 1.7143 1.7147)">
  <path id="path4067" d="m6.5416 1c-3.0605 0-5.5416 2.4811-5.5416 5.5417s2.4811 5.5417 5.5416 5.5417c1.0802 0 2.0827-0.32225 2.9348-0.85674l3.7736 3.773 1.75-1.75-3.774-3.7734c0.535-0.8523 0.857-1.8547 0.857-2.9349 0-3.0606-2.4805-5.5417-5.5413-5.5417zm0 1.75c2.0941 0 3.7916 1.6976 3.7916 3.7917s-1.6975 3.7917-3.7916 3.7917-3.7916-1.6972-3.7916-3.7913 1.6975-3.7917 3.7916-3.7917z"/>
 </g>
</svg>
