<svg id="svg2" xmlns:rdf="http://www.w3.org/1999/02/22-rdf-syntax-ns#" xmlns="http://www.w3.org/2000/svg" version="1.1" xmlns:cc="http://creativecommons.org/ns#" xmlns:dc="http://purl.org/dc/elements/1.1/" viewBox="0 0 24 24">
 <g id="layer1" fill-rule="evenodd" transform="translate(0 -1028.4)">
  <path id="path4195" style="color-rendering:auto;text-decoration-color:#000000;color:#000000;isolation:auto;mix-blend-mode:normal;shape-rendering:auto;solid-color:#000000;block-progression:tb;text-decoration-line:none;text-decoration-style:solid;image-rendering:auto;white-space:normal;text-indent:0;text-transform:none" d="m12 1036.4c-2.2024 0-4 1.7976-4 4-0.0000183 2.2024 1.7976 4 4 4s4-1.7976 4-4c0.000018-2.2024-1.7976-4-4-4zm0 1.1446c1.5847 0 2.8574 1.2707 2.8574 2.8554 0.000013 1.5848-1.2727 2.8574-2.8574 2.8575-1.5847 0-2.8574-1.2727-2.8574-2.8575-0.0000131-1.5847 1.2727-2.8554 2.8574-2.8554z"/>
  <path id="path4267-0" style="color-rendering:auto;text-decoration-color:#000000;color:#000000;isolation:auto;mix-blend-mode:normal;shape-rendering:auto;solid-color:#000000;block-progression:tb;text-decoration-line:none;text-decoration-style:solid;image-rendering:auto;white-space:normal;text-indent:0;text-transform:none" d="m12 1034.4c-3.8909 0-7.4282 2.2678-9.0625 5.7988a0.47624 0.47624 0 0 0 -0.00781 0.3848c0.047835 0.113 0.098429 0.2267 0.15039 0.3379a0.47624 0.47624 0 0 0 0.00781 0.014c0.15154 0.2973 0.31756 0.5866 0.49805 0.8672 0.17982 0.2802 0.37322 0.5517 0.58008 0.8125 0.20746 0.2611 0.42766 0.511 0.66016 0.75 0.23249 0.2397 0.47713 0.4683 0.73242 0.6836 0.25463 0.2138 0.52027 0.4162 0.79492 0.6035 0.2748 0.1884 0.55934 0.3615 0.85156 0.5215 0.29266 0.1599 0.59323 0.3057 0.90039 0.4356 0.30718 0.1297 0.62085 0.2433 0.93945 0.3418 0.31832 0.099 0.64021 0.1815 0.9668 0.248 0.32679 0.066 0.65845 0.117 0.99023 0.1504 0.33188 0.033 0.66452 0.049 0.99805 0.049 0.23605 0.0003 0.47155-0.01 0.70703-0.023 0.33267-0.024 0.6655-0.064 0.99414-0.1211 0.32816-0.057 0.65181-0.1294 0.97266-0.2188 0.32154-0.089 0.63814-0.1941 0.94922-0.3144 0.31081-0.1208 0.61686-0.257 0.91406-0.4082 0.29729-0.1515 0.58652-0.3176 0.86719-0.4981 0.2802-0.1798 0.54968-0.3732 0.81055-0.58a0.47624 0.47624 0 0 0 0.002 0c0.26105-0.2075 0.51097-0.4277 0.75-0.6602 0.23972-0.2325 0.46637-0.4771 0.68164-0.7324a0.47624 0.47624 0 0 0 0.002 0c0.21376-0.2546 0.41421-0.5203 0.60156-0.7949 0.18803-0.2744 0.36368-0.5578 0.52344-0.8496a0.47624 0.47624 0 0 0 0.0039 -0.01c0.10222-0.195 0.19798-0.3944 0.28711-0.5957a0.47624 0.47624 0 0 0 -0.0039 -0.3926c-1.6341-3.5312-5.1715-5.7938-9.0625-5.7988zm0 0.9512c3.4534 0 6.5719 1.9886 8.0879 5.0781-0.05022 0.1055-0.09807 0.2128-0.15234 0.3164-0.14364 0.2617-0.29995 0.5155-0.46875 0.7617-0.16974 0.2489-0.35317 0.49-0.54688 0.7207h0.002c-0.19477 0.231-0.40225 0.4518-0.61914 0.6621-0.21626 0.2104-0.4435 0.41-0.67969 0.5977-0.23564 0.1868-0.48131 0.3629-0.73438 0.5254-0.25394 0.1633-0.51618 0.314-0.78516 0.4511-0.2689 0.1368-0.54301 0.2618-0.82422 0.3711-0.28145 0.1089-0.56846 0.2049-0.85938 0.2852-0.29029 0.081-0.58591 0.1477-0.88281 0.1992-0.29734 0.051-0.5955 0.088-0.89648 0.1094-0.21305 0.015-0.42706 0.022-0.64062 0.022-0.30176 0.0002-0.60402-0.015-0.9043-0.045-0.30018-0.03-0.59691-0.075-0.89258-0.1347-0.29549-0.06-0.58895-0.1353-0.87695-0.2246-0.28826-0.089-0.57169-0.1932-0.84961-0.3106-0.27791-0.1175-0.54967-0.2499-0.81445-0.3945-0.26439-0.1447-0.5209-0.3041-0.76953-0.4746a0.47624 0.47624 0 0 0 -0.00195 0c-0.24891-0.1697-0.48801-0.3512-0.71875-0.5449-0.23098-0.1948-0.45176-0.4003-0.66211-0.6172-0.21035-0.2163-0.40995-0.4416-0.59766-0.6778-0.18715-0.236-0.3627-0.4808-0.52539-0.7343-0.16046-0.2496-0.30818-0.5075-0.44336-0.7715-0.012593-0.027-0.02283-0.055-0.035156-0.082 1.5149-3.0929 4.6361-5.0796 8.0918-5.0839z"/>
  <path id="path4357" style="color-rendering:auto;text-decoration-color:#000000;color:#000000;isolation:auto;mix-blend-mode:normal;shape-rendering:auto;solid-color:#000000;block-progression:tb;text-decoration-line:none;text-decoration-style:solid;image-rendering:auto;white-space:normal;text-indent:0;text-transform:none" d="m11.992 1047.4a0.50005 0.50005 0 0 0 -0.492 0.5v3a0.50005 0.50005 0 1 0 1 0v-3a0.50005 0.50005 0 0 0 -0.50781 -0.5058z"/>
  <path id="path4357-4" style="color-rendering:auto;text-decoration-color:#000000;color:#000000;isolation:auto;mix-blend-mode:normal;shape-rendering:auto;solid-color:#000000;block-progression:tb;text-decoration-line:none;text-decoration-style:solid;image-rendering:auto;white-space:normal;text-indent:0;text-transform:none" d="m19.52 1045.4a0.50005 0.50005 0 0 0 -0.34961 0.8574l2.1211 2.1211a0.50005 0.50005 0 1 0 0.70703 -0.707l-2.1211-2.1211a0.50005 0.50005 0 0 0 -0.35742 -0.1504z"/>
  <path id="path4357-4-7" style="color-rendering:auto;text-decoration-color:#000000;color:#000000;isolation:auto;mix-blend-mode:normal;shape-rendering:auto;solid-color:#000000;block-progression:tb;text-decoration-line:none;text-decoration-style:solid;image-rendering:auto;white-space:normal;text-indent:0;text-transform:none" d="m4.4668 1045.4a0.50005 0.50005 0 0 0 -0.34375 0.1504l-2.1211 2.1211a0.50005 0.50005 0 1 0 0.70703 0.707l2.1211-2.1211a0.50005 0.50005 0 0 0 -0.36328 -0.8574z"/>
  <path id="path4357-9" style="color-rendering:auto;text-decoration-color:#000000;color:#000000;isolation:auto;mix-blend-mode:normal;shape-rendering:auto;solid-color:#000000;block-progression:tb;text-decoration-line:none;text-decoration-style:solid;image-rendering:auto;white-space:normal;text-indent:0;text-transform:none" d="m11.992 1029.5a0.50005 0.50005 0 0 0 -0.492 0.6v3a0.50005 0.50005 0 1 0 1 0v-3a0.50005 0.50005 0 0 0 -0.50781 -0.5059z"/>
  <path id="path4357-4-1" style="color-rendering:auto;text-decoration-color:#000000;color:#000000;isolation:auto;mix-blend-mode:normal;shape-rendering:auto;solid-color:#000000;block-progression:tb;text-decoration-line:none;text-decoration-style:solid;image-rendering:auto;white-space:normal;text-indent:0;text-transform:none" d="m21.635 1032.4a0.50005 0.50005 0 0 0 -0.34375 0.1523l-2.1211 2.1211a0.50005 0.50005 0 1 0 0.70703 0.7071l2.1211-2.1211a0.50005 0.50005 0 0 0 -0.36328 -0.8594z"/>
  <path id="path4357-4-7-0" style="color-rendering:auto;text-decoration-color:#000000;color:#000000;isolation:auto;mix-blend-mode:normal;shape-rendering:auto;solid-color:#000000;block-progression:tb;text-decoration-line:none;text-decoration-style:solid;image-rendering:auto;white-space:normal;text-indent:0;text-transform:none" d="m2.3496 1032.4a0.50005 0.50005 0 0 0 -0.34766 0.8594l2.1211 2.1211a0.50005 0.50005 0 1 0 0.70703 -0.7071l-2.1211-2.1211a0.50005 0.50005 0 0 0 -0.35938 -0.1523z"/>
 </g>
</svg>
